/* XPM */
static char * cat_films_xpm[] = {
"32 32 185 2",
"  	c None",
". 	c #000909",
"+ 	c #000303",
"@ 	c #000505",
"# 	c #000808",
"$ 	c #000707",
"% 	c #000C0C",
"& 	c #000000",
"* 	c #000202",
"= 	c #000A0A",
"- 	c #000D0D",
"; 	c #000F0F",
"> 	c #000E0E",
", 	c #000101",
"' 	c #001111",
") 	c #037E7E",
"! 	c #016D6D",
"~ 	c #55ECEC",
"{ 	c #DDFFFF",
"] 	c #1ADDDD",
"^ 	c #004B4B",
"/ 	c #000606",
"( 	c #000404",
"_ 	c #000B0B",
": 	c #55EDED",
"< 	c #08C3C3",
"[ 	c #19E2E2",
"} 	c #C9FEFE",
"| 	c #06BEBE",
"1 	c #002D2D",
"2 	c #001515",
"3 	c #089898",
"4 	c #017272",
"5 	c #56F7F7",
"6 	c #92F8F8",
"7 	c #009797",
"8 	c #001717",
"9 	c #081010",
"0 	c #55EEEE",
"a 	c #001C1C",
"b 	c #039D9D",
"c 	c #9AFFFF",
"d 	c #51ECEC",
"e 	c #006E6E",
"f 	c #030404",
"g 	c #003535",
"h 	c #0DC4C4",
"i 	c #C1FFFF",
"j 	c #1DD9D9",
"k 	c #004646",
"l 	c #010101",
"m 	c #55EFEF",
"n 	c #079898",
"o 	c #111111",
"p 	c #2F2F2F",
"q 	c #494949",
"r 	c #616767",
"s 	c #5A9A9A",
"t 	c #31E4E4",
"u 	c #5AD8D8",
"v 	c #708484",
"w 	c #707070",
"x 	c #6F6F6F",
"y 	c #6E6E6E",
"z 	c #263A3A",
"A 	c #55F0F0",
"B 	c #50BBBB",
"C 	c #676767",
"D 	c #737373",
"E 	c #727272",
"F 	c #717171",
"G 	c #707A7A",
"H 	c #4AABAB",
"I 	c #59F5F5",
"J 	c #B4FCFC",
"K 	c #6FB7B7",
"L 	c #757575",
"M 	c #3C4141",
"N 	c #1C1C1C",
"O 	c #575757",
"P 	c #606767",
"Q 	c #55F1F1",
"R 	c #60C3C3",
"S 	c #717272",
"T 	c #717070",
"U 	c #757474",
"V 	c #227979",
"W 	c #39E6E6",
"X 	c #C5FFFF",
"Y 	c #74C0C0",
"Z 	c #767676",
"` 	c #293232",
" .	c #3D3D3D",
"..	c #666666",
"+.	c #747474",
"@.	c #666D6D",
"#.	c #55F2F2",
"$.	c #5EC2C2",
"%.	c #787676",
"&.	c #396B6B",
"*.	c #13BFBF",
"=.	c #B6FEFE",
"-.	c #91E8E8",
";.	c #6D9B9B",
">.	c #717474",
",.	c #777777",
"'.	c #021414",
").	c #343434",
"!.	c #6C6C6C",
"~.	c #55F3F3",
"{.	c #5DC2C2",
"].	c #757373",
"^.	c #516666",
"/.	c #00A2A2",
"(.	c #97F5F5",
"_.	c #A4F7F7",
":.	c #6EB0B0",
"<.	c #717A7A",
"[.	c #7B7B7B",
"}.	c #565858",
"|.	c #55F7F7",
"1.	c #5BC2C2",
"2.	c #737272",
"3.	c #0A8989",
"4.	c #6AE5E5",
"5.	c #B4FFFF",
"6.	c #75C6C6",
"7.	c #708383",
"8.	c #9C9E9E",
"9.	c #495454",
"0.	c #55F9F9",
"a.	c #5AC1C1",
"b.	c #706F6F",
"c.	c #237575",
"d.	c #36CDCD",
"e.	c #B2FFFF",
"f.	c #85DBDB",
"g.	c #6F9090",
"h.	c #515858",
"i.	c #262D2D",
"j.	c #55FBFB",
"k.	c #2DC5C5",
"l.	c #0DAFAF",
"m.	c #9BFFFF",
"n.	c #9FECEC",
"o.	c #6CA2A2",
"p.	c #717575",
"q.	c #8E8E8E",
"r.	c #585D5D",
"s.	c #656C6C",
"t.	c #56FDFD",
"u.	c #80FFFF",
"v.	c #BCF8F8",
"w.	c #6CB8B8",
"x.	c #717B7B",
"y.	c #7A7A7A",
"z.	c #5C6161",
"A.	c #6F7272",
"B.	c #45D1D1",
"C.	c #6FCCCC",
"D.	c #718585",
"E.	c #959595",
"F.	c #485151",
"G.	c #727171",
"H.	c #9B9B9B",
"I.	c #576262",
"J.	c #9C9C9C",
"K.	c #081212",
"L.	c #3F5050",
"M.	c #777878",
"N.	c #818181",
"O.	c #949595",
"P.	c #7E8282",
"Q.	c #797878",
"R.	c #7D7D7D",
"S.	c #A0A1A1",
"T.	c #454A4A",
"U.	c #626969",
"V.	c #929393",
"W.	c #878787",
"X.	c #7C7C7C",
"Y.	c #7A7979",
"Z.	c #898989",
"`.	c #9A9C9C",
" +	c #282F2F",
"                                                                ",
"                                                                ",
"                            . + @ #                             ",
"                    $ % & & & & & & & * = .                     ",
"                  = & & & & & & & & & & & & #                   ",
"              - & & & & & & & & & & & & & & & & ;               ",
"            - & & & & & & & & & & & & & & & & & & >             ",
"          - & & & & & , & & & & & & & & & & & & & & '           ",
"          & & & & & + ) ! ; & & & & & & & & & & & & ,           ",
"        = & & & & & . ~ { ] ^ / & & & & & & & & & & & (         ",
"      $ & & & & & & _ : < [ } | 1 * & & & & & & & & & & 2       ",
"      % & & & & & & _ : 3 > 4 5 6 7 8 & & & & & & & & & 9       ",
"      & & & & & & & _ 0 3 , , a b c d e = & & & & & & & f       ",
"      & & & & & & & _ 0 3 , & & + g h i j k & & & & & & l       ",
"    . & & & & & & & _ m n & & o p q r s t i u v w x y y x z     ",
"    + & & & & & & & $ A B C w D E E F F G H I J K F F F L M     ",
"    @ & & & & & N O P Q R S F F F F F T U V W X Y F F F Z `     ",
"    # & & &  ...+.F @.#.$.S F F F F %.&.*.=.-.;.>.F F F ,.'.    ",
"      & ).!.E F F F @.~.{.S F F ].^./.(._.:.<.T F F F F [.      ",
"      }.D F F F F F @.|.1.S 2.r 3.4.5.6.7.F F F F F F w 8.      ",
"      9.F F F F F F @.0.a.b.c.d.e.f.g.S F F F F F F F ,.h.      ",
"      i.U F F F F F @.j.k.l.m.n.o.p.T F F F F F F F w q.&       ",
"        r.F F F F F s.t.u.v.w.x.T F F F F F F F F F y.z.        ",
"          y F F F F A.B.C.D.T F F F F F F F F F F F E.          ",
"          F.G.F F F F S T F F F F F F F F F F F w H./           ",
"            I.L F F F F F F F F F F F F F F F E J.K.            ",
"              L.M.T F F F F F F F F F F F x N.O.+               ",
"                  P.Q.+.w F F F F F w E R.S.T.                  ",
"                    _ U.V.W.X.Y.R.Z.H.`. ++                     ",
"                            _ & & #                             ",
"                                                                ",
"                                                                "};
